<svg xmlns="http://www.w3.org/2000/svg" width="584" height="400" class="svgbob">
  <style>.svgbob line, .svgbob path, .svgbob circle, .svgbob rect, .svgbob polygon {
  stroke: #e0e0e0;
  stroke-width: 2;
  stroke-opacity: 1;
  fill-opacity: 1;
  stroke-linecap: round;
  stroke-linejoin: miter;
}

.svgbob text {
  white-space: pre;
  fill: #e0e0e0;
  font-family: Iosevka Fixed, monospace;
  font-size: 14px;
}

.svgbob rect.backdrop {
  stroke: none;
  fill: transparent;
}

.svgbob .broken {
  stroke-dasharray: 8;
}

.svgbob .filled {
  fill: #e0e0e0;
}

.svgbob .bg_filled {
  fill: transparent;
  stroke-width: 1;
}

.svgbob .nofill {
  fill: transparent;
}

.svgbob .end_marked_arrow {
  marker-end: url(#arrow);
}

.svgbob .start_marked_arrow {
  marker-start: url(#arrow);
}

.svgbob .end_marked_diamond {
  marker-end: url(#diamond);
}

.svgbob .start_marked_diamond {
  marker-start: url(#diamond);
}

.svgbob .end_marked_circle {
  marker-end: url(#circle);
}

.svgbob .start_marked_circle {
  marker-start: url(#circle);
}

.svgbob .end_marked_open_circle {
  marker-end: url(#open_circle);
}

.svgbob .start_marked_open_circle {
  marker-start: url(#open_circle);
}

.svgbob .end_marked_big_open_circle {
  marker-end: url(#big_open_circle);
}

.svgbob .start_marked_big_open_circle {
  marker-start: url(#big_open_circle);
}

</style>
  <defs>
    <marker id="arrow" viewBox="-2 -2 8 8" refX="4" refY="2" markerWidth="7" markerHeight="7" orient="auto-start-reverse">
      <polygon points="0,0 0,4 4,2 0,0"></polygon>
    </marker>
    <marker id="diamond" viewBox="-2 -2 8 8" refX="4" refY="2" markerWidth="7" markerHeight="7" orient="auto-start-reverse">
      <polygon points="0,2 2,0 4,2 2,4 0,2"></polygon>
    </marker>
    <marker id="circle" viewBox="0 0 8 8" refX="4" refY="4" markerWidth="7" markerHeight="7" orient="auto-start-reverse">
      <circle cx="4" cy="4" r="2" class="filled"></circle>
    </marker>
    <marker id="open_circle" viewBox="0 0 8 8" refX="4" refY="4" markerWidth="7" markerHeight="7" orient="auto-start-reverse">
      <circle cx="4" cy="4" r="2" class="bg_filled"></circle>
    </marker>
    <marker id="big_open_circle" viewBox="0 0 8 8" refX="4" refY="4" markerWidth="7" markerHeight="7" orient="auto-start-reverse">
      <circle cx="4" cy="4" r="3" class="bg_filled"></circle>
    </marker>
  </defs>
  <rect class="backdrop" x="0" y="0" width="584" height="400"></rect>
  <rect x="380" y="56" width="144" height="64" class="solid nofill" rx="0"></rect>
  <text x="426" y="76" >Loader</text>
  <text x="418" y="92" >DbClient</text>
  <text x="402" y="108" >FixedWidth</text>
  <text x="26" y="28" >Your</text>
  <text x="66" y="28" >Application</text>
  <text x="58" y="76" >Extractor</text>
  <polygon points="184,68 192,72 184,76" class="filled"></polygon>
  <text x="218" y="76" >Transformer</text>
  <polygon points="368,68 376,72 368,76" class="filled"></polygon>
  <text x="50" y="92" >FixedWidth</text>
  <path d="M 224,80 A 16,16 0,0,0 224,96" class="nofill"></path>
  <text x="226" y="92" >your</text>
  <text x="266" y="92" >code</text>
  <path d="M 296,80 A 16,16 0,0,1 296,96" class="nofill"></path>
  <text x="50" y="108" >JSON,</text>
  <text x="98" y="108" >Xml</text>
  <text x="26" y="156" >ETL</text>
  <text x="58" y="156" >Libraries</text>
  <text x="34" y="188" >Wolfgang.Etl.FixedWidth</text>
  <text x="258" y="188" >Wolfgang.Etl.DbClient</text>
  <text x="34" y="204" >Wolfgang.Etl.Json</text>
  <text x="258" y="204" >Wolfgang.Etl.Xml</text>
  <text x="26" y="236" >Wolfgang.Etl.Abstractions</text>
  <text x="34" y="268" >ExtractorBase</text>
  <text x="170" y="268" >TransformerBase</text>
  <text x="322" y="268" >LoaderBase</text>
  <text x="434" y="268" >Report</text>
  <text x="34" y="284" >IExtractAsync</text>
  <text x="170" y="284" >ITransformAsync</text>
  <text x="322" y="284" >ILoadAsync</text>
  <text x="434" y="284" >IProgress</text>
  <text x="26" y="316" >Wolfgang.Etl.TestKit</text>
  <line x1="200" y1="304" x2="192" y2="320" class="solid"></line>
  <text x="210" y="316" >TestKit.Xunit</text>
  <text x="34" y="348" >TestExtractor</text>
  <text x="170" y="348" >TestTransformer</text>
  <text x="322" y="348" >TestLoader</text>
  <text x="34" y="364" >ExtractorBaseContractTests</text>
  <text x="274" y="364" >LoaderBaseContractTests</text>
  <g>
    <line x1="4" y1="8" x2="572" y2="8" class="solid"></line>
    <line x1="4" y1="8" x2="4" y2="376" class="solid"></line>
    <line x1="572" y1="8" x2="572" y2="376" class="solid"></line>
    <line x1="4" y1="136" x2="572" y2="136" class="solid"></line>
    <line x1="4" y1="216" x2="572" y2="216" class="solid"></line>
    <line x1="4" y1="296" x2="572" y2="296" class="solid"></line>
    <line x1="4" y1="376" x2="572" y2="376" class="solid"></line>
  </g>
  <g>
    <line x1="36" y1="56" x2="140" y2="56" class="solid"></line>
    <line x1="36" y1="56" x2="36" y2="120" class="solid"></line>
    <line x1="140" y1="56" x2="140" y2="120" class="solid"></line>
    <line x1="140" y1="72" x2="184" y2="72" class="solid"></line>
    <line x1="36" y1="120" x2="140" y2="120" class="solid"></line>
  </g>
  <g>
    <line x1="196" y1="56" x2="324" y2="56" class="solid"></line>
    <line x1="196" y1="56" x2="196" y2="120" class="solid"></line>
    <line x1="324" y1="56" x2="324" y2="120" class="solid"></line>
    <line x1="324" y1="72" x2="368" y2="72" class="solid"></line>
    <line x1="196" y1="120" x2="324" y2="120" class="solid"></line>
  </g>
</svg>
