<svg xmlns="http://www.w3.org/2000/svg" width="480" height="288" class="svgbob">
  <style>.svgbob line, .svgbob path, .svgbob circle, .svgbob rect, .svgbob polygon {
  stroke: #e0e0e0;
  stroke-width: 2;
  stroke-opacity: 1;
  fill-opacity: 1;
  stroke-linecap: round;
  stroke-linejoin: miter;
}

.svgbob text {
  white-space: pre;
  fill: #e0e0e0;
  font-family: Iosevka Fixed, monospace;
  font-size: 14px;
}

.svgbob rect.backdrop {
  stroke: none;
  fill: transparent;
}

.svgbob .broken {
  stroke-dasharray: 8;
}

.svgbob .filled {
  fill: #e0e0e0;
}

.svgbob .bg_filled {
  fill: transparent;
  stroke-width: 1;
}

.svgbob .nofill {
  fill: transparent;
}

.svgbob .end_marked_arrow {
  marker-end: url(#arrow);
}

.svgbob .start_marked_arrow {
  marker-start: url(#arrow);
}

.svgbob .end_marked_diamond {
  marker-end: url(#diamond);
}

.svgbob .start_marked_diamond {
  marker-start: url(#diamond);
}

.svgbob .end_marked_circle {
  marker-end: url(#circle);
}

.svgbob .start_marked_circle {
  marker-start: url(#circle);
}

.svgbob .end_marked_open_circle {
  marker-end: url(#open_circle);
}

.svgbob .start_marked_open_circle {
  marker-start: url(#open_circle);
}

.svgbob .end_marked_big_open_circle {
  marker-end: url(#big_open_circle);
}

.svgbob .start_marked_big_open_circle {
  marker-start: url(#big_open_circle);
}

</style>
  <defs>
    <marker id="arrow" viewBox="-2 -2 8 8" refX="4" refY="2" markerWidth="7" markerHeight="7" orient="auto-start-reverse">
      <polygon points="0,0 0,4 4,2 0,0"></polygon>
    </marker>
    <marker id="diamond" viewBox="-2 -2 8 8" refX="4" refY="2" markerWidth="7" markerHeight="7" orient="auto-start-reverse">
      <polygon points="0,2 2,0 4,2 2,4 0,2"></polygon>
    </marker>
    <marker id="circle" viewBox="0 0 8 8" refX="4" refY="4" markerWidth="7" markerHeight="7" orient="auto-start-reverse">
      <circle cx="4" cy="4" r="2" class="filled"></circle>
    </marker>
    <marker id="open_circle" viewBox="0 0 8 8" refX="4" refY="4" markerWidth="7" markerHeight="7" orient="auto-start-reverse">
      <circle cx="4" cy="4" r="2" class="bg_filled"></circle>
    </marker>
    <marker id="big_open_circle" viewBox="0 0 8 8" refX="4" refY="4" markerWidth="7" markerHeight="7" orient="auto-start-reverse">
      <circle cx="4" cy="4" r="3" class="bg_filled"></circle>
    </marker>
  </defs>
  <rect class="backdrop" x="0" y="0" width="480" height="288"></rect>
  <text x="186" y="28" >IExtractAsync</text>
  <text x="58" y="124" >IExtractWith</text>
  <text x="282" y="124" >IExtractWith</text>
  <text x="58" y="140" >CancellationAsync</text>
  <text x="282" y="140" >ProgressAsync</text>
  <text x="138" y="236" >IExtractWithProgressAnd</text>
  <text x="138" y="252" >CancellationAsync</text>
  <g>
    <line x1="148" y1="8" x2="332" y2="8" class="solid"></line>
    <line x1="148" y1="8" x2="148" y2="40" class="solid"></line>
    <line x1="332" y1="8" x2="332" y2="40" class="solid"></line>
    <line x1="148" y1="40" x2="332" y2="40" class="solid"></line>
    <line x1="236" y1="40" x2="236" y2="72" class="solid"></line>
    <line x1="148" y1="72" x2="332" y2="72" class="solid"></line>
    <line x1="148" y1="72" x2="148" y2="104" class="solid"></line>
    <line x1="332" y1="72" x2="332" y2="104" class="solid"></line>
    <line x1="28" y1="104" x2="220" y2="104" class="solid"></line>
    <line x1="28" y1="104" x2="28" y2="152" class="solid"></line>
    <line x1="220" y1="104" x2="220" y2="152" class="solid"></line>
    <line x1="252" y1="104" x2="468" y2="104" class="solid"></line>
    <line x1="252" y1="104" x2="252" y2="152" class="solid"></line>
    <line x1="468" y1="104" x2="468" y2="152" class="solid"></line>
    <line x1="28" y1="152" x2="220" y2="152" class="solid"></line>
    <line x1="148" y1="152" x2="148" y2="184" class="solid"></line>
    <line x1="252" y1="152" x2="468" y2="152" class="solid"></line>
    <line x1="332" y1="152" x2="332" y2="184" class="solid"></line>
    <line x1="148" y1="184" x2="332" y2="184" class="solid"></line>
    <line x1="236" y1="184" x2="236" y2="216" class="solid"></line>
    <line x1="116" y1="216" x2="372" y2="216" class="solid"></line>
    <line x1="116" y1="216" x2="116" y2="264" class="solid"></line>
    <line x1="372" y1="216" x2="372" y2="264" class="solid"></line>
    <line x1="116" y1="264" x2="372" y2="264" class="solid"></line>
  </g>
</svg>
