<svg xmlns="http://www.w3.org/2000/svg" width="744" height="96" class="svgbob">
  <style>.svgbob line, .svgbob path, .svgbob circle, .svgbob rect, .svgbob polygon {
  stroke: black;
  stroke-width: 2;
  stroke-opacity: 1;
  fill-opacity: 1;
  stroke-linecap: round;
  stroke-linejoin: miter;
}

.svgbob text {
  white-space: pre;
  fill: black;
  font-family: Iosevka Fixed, monospace;
  font-size: 14px;
}

.svgbob rect.backdrop {
  stroke: none;
  fill: white;
}

.svgbob .broken {
  stroke-dasharray: 8;
}

.svgbob .filled {
  fill: black;
}

.svgbob .bg_filled {
  fill: white;
  stroke-width: 1;
}

.svgbob .nofill {
  fill: white;
}

.svgbob .end_marked_arrow {
  marker-end: url(#arrow);
}

.svgbob .start_marked_arrow {
  marker-start: url(#arrow);
}

.svgbob .end_marked_diamond {
  marker-end: url(#diamond);
}

.svgbob .start_marked_diamond {
  marker-start: url(#diamond);
}

.svgbob .end_marked_circle {
  marker-end: url(#circle);
}

.svgbob .start_marked_circle {
  marker-start: url(#circle);
}

.svgbob .end_marked_open_circle {
  marker-end: url(#open_circle);
}

.svgbob .start_marked_open_circle {
  marker-start: url(#open_circle);
}

.svgbob .end_marked_big_open_circle {
  marker-end: url(#big_open_circle);
}

.svgbob .start_marked_big_open_circle {
  marker-start: url(#big_open_circle);
}

</style>
  <defs>
    <marker id="arrow" viewBox="-2 -2 8 8" refX="4" refY="2" markerWidth="7" markerHeight="7" orient="auto-start-reverse">
      <polygon points="0,0 0,4 4,2 0,0"></polygon>
    </marker>
    <marker id="diamond" viewBox="-2 -2 8 8" refX="4" refY="2" markerWidth="7" markerHeight="7" orient="auto-start-reverse">
      <polygon points="0,2 2,0 4,2 2,4 0,2"></polygon>
    </marker>
    <marker id="circle" viewBox="0 0 8 8" refX="4" refY="4" markerWidth="7" markerHeight="7" orient="auto-start-reverse">
      <circle cx="4" cy="4" r="2" class="filled"></circle>
    </marker>
    <marker id="open_circle" viewBox="0 0 8 8" refX="4" refY="4" markerWidth="7" markerHeight="7" orient="auto-start-reverse">
      <circle cx="4" cy="4" r="2" class="bg_filled"></circle>
    </marker>
    <marker id="big_open_circle" viewBox="0 0 8 8" refX="4" refY="4" markerWidth="7" markerHeight="7" orient="auto-start-reverse">
      <circle cx="4" cy="4" r="3" class="bg_filled"></circle>
    </marker>
  </defs>
  <rect class="backdrop" x="0" y="0" width="744" height="96"></rect>
  <rect x="540" y="8" width="192" height="64" class="solid nofill" rx="0"></rect>
  <text x="562" y="44" >Loader&lt;TDestination&gt;</text>
  <polygon points="200,36 208,40 200,44" class="filled"></polygon>
  <text x="402" y="44" >TDestination</text>
  <polygon points="528,36 536,40 528,44" class="filled"></polygon>
  <text x="18" y="44" >Extractor&lt;TSource&gt;</text>
  <text x="234" y="44" >Transformer&lt;TSource,</text>
  <g>
    <line x1="4" y1="8" x2="180" y2="8" class="solid"></line>
    <line x1="4" y1="8" x2="4" y2="72" class="solid"></line>
    <line x1="180" y1="8" x2="180" y2="72" class="solid"></line>
    <line x1="180" y1="40" x2="200" y2="40" class="solid"></line>
    <line x1="4" y1="72" x2="180" y2="72" class="solid"></line>
  </g>
  <g>
    <line x1="212" y1="8" x2="508" y2="8" class="solid"></line>
    <line x1="212" y1="8" x2="212" y2="72" class="solid"></line>
    <line x1="508" y1="8" x2="508" y2="72" class="solid"></line>
    <line x1="508" y1="40" x2="528" y2="40" class="solid"></line>
    <line x1="212" y1="72" x2="508" y2="72" class="solid"></line>
  </g>
  <g>
    <line x1="496" y1="36" x2="504" y2="40" class="solid"></line>
    <line x1="504" y1="40" x2="496" y2="44" class="solid"></line>
  </g>
</svg>
